<?xml version="1.0" encoding="utf-8"?>
<!-- Generator: Adobe Illustrator 18.0.0, SVG Export Plug-In . SVG Version: 6.00 Build 0)  -->
<!DOCTYPE svg PUBLIC "-//W3C//DTD SVG 1.1//EN" "http://www.w3.org/Graphics/SVG/1.1/DTD/svg11.dtd">
<svg version="1.1" id="Layer_1" xmlns="http://www.w3.org/2000/svg" xmlns:xlink="http://www.w3.org/1999/xlink" x="0px" y="0px"
	 viewBox="0 0 300 300" enable-background="new 0 0 300 300" xml:space="preserve">
<g>
	<g>
		<path fill="#050207" d="M9.6,63.4c5.7-12.7,16.9-23,30.5-28.1c2.6-1,5.2-1.8,7.9-2.4c2.3-0.5,4.6-0.2,6.6,0.8
			c0.2-0.1,0.3-0.3,0.5-0.4c0.4-0.3,0.7-0.5,1.1-0.7c0,0,0.1-0.1,0.1-0.1c0.4-0.2,0.7-0.4,1.2-0.6l0.3-0.1c0.2-0.1,0.4-0.2,0.6-0.3
			l0.2-0.1c0.1,0,0.2-0.1,0.3-0.1l0.6-0.2c0.3-0.1,0.6-0.3,0.9-0.4c0.4-0.1,0.8-0.3,1.2-0.4l0.4-0.1c0.3-0.1,0.6-0.2,0.8-0.2
			c0.4-0.1,0.8-0.2,1.2-0.2h0c0.3-0.1,0.7-0.2,1-0.2c1.5-0.2,2.7-0.4,3.9-0.5c0.3,0,0.6,0,0.9-0.1l0.2,0c3.5-0.2,7-0.1,10.6,0.4
			c13.5,1.8,25.4,8,36.9,14.1c4.6,2.4,9.3,4.9,13.9,6.9c7.1,3.2,16.5,6.8,25.9,6.8c0.6,0,1.3,0,1.9-0.1c3.5-0.2,7-0.8,10.7-1.8
			c26-7.2,46.6-32.2,48.8-35c0.4-0.5,0.8-0.9,1.3-1.4c2-1.7,3.8-3.2,6.4-4.9c0.2-0.1,0.4-0.3,0.7-0.4c0.1-0.1,0.2-0.1,0.4-0.2
			l0.4-0.2c0.2-0.1,0.3-0.2,0.5-0.3l0.3-0.1c0.3-0.2,0.7-0.4,1-0.5c0.1-0.1,0.3-0.1,0.4-0.2c0.1,0,0.2-0.1,0.5-0.2l0.6-0.2
			c0.3-0.1,0.6-0.2,0.9-0.3c0.5-0.1,1-0.3,1.6-0.5c2-0.5,4.3-0.7,6.6-0.7c3.5,0,7.4,0.5,11.3,1.6c11.7,3.1,22.2,9,29.4,16.5
			c8,8.3,13.2,19.1,14.9,31.3c1.6,11.1,0.3,22.8-3.7,33.9c-3.4,9.5-8.7,18.8-15.8,27.7c-3.5,4.5-7.4,8.5-11.2,12.4
			c-3.4,3.5-6.9,7.1-9.9,10.9c-3.6,4.4-6,8.2-7.5,12c-1.5,3.7-2.6,7.9-3.1,12.4c-0.5,4.1-0.6,8.2-0.6,11.7c0,1.6,0,3.1,0,4.7l0,1.1
			c0,2.9-0.1,5.9-0.2,9l0,0.1c0,0.8-0.1,1.5-0.1,2.3c-0.2,3.3-0.6,6.4-1.1,9.4c-1,5.5-0.7,11.1,0.3,16.5c0.2,1.3,0.2,2.7-0.1,4
			c-4.7,21.3-21.3,40.7-44.2,51.9c-5.4,2.6-11,4.8-16.8,6.4c0,0,0,0,0,0c-9,2.5-18.5,3.8-28.1,3.8c-10.4,0-20.9-1.5-31.2-4.4
			c-13.2-3.7-23.5-10.5-30.4-20.1c-5.5-7.7-9-16.3-12.3-24.7c-1.1-2.8-2.2-5.7-3.4-8.4c-9.8-22.6-21.7-44.8-35.4-65.8
			c-4.6-7-9.6-14-14.4-20.7c-2.2-3-4.7-6.5-7.1-9.9c-9.1-13-13.9-23.9-15.5-35.4C2.4,87.9,4.4,75.1,9.6,63.4z"/>
	</g>
	<g>
		<g>
			<path fill="#AF1722" d="M42,80c1.2,12.9,8,24.1,13.8,32.4c2.6,3.8,5.4,7.6,8.1,11.3c4.2,5.7,8.4,11.7,12.4,17.6
				c12.8,19.5,24.2,40.5,33.7,62.3c1.2,2.7,2.3,5.6,3.4,8.3c3,7.6,6.2,15.5,11,22.4c5.8,8.4,14.8,14.3,27.5,17.8
				c10.9,3,22.4,4.1,33.4,3.2c5-0.4,9.7-1.2,14.3-2.5c0.7-0.2,1.3-0.4,2-0.6c0.7-0.2,1.4-0.4,2-0.6l0.3-0.1c0.1,0,0.1,0,0.2-0.1
				c0.1,0,0.3-0.1,0.5-0.2c1.1-0.4,2.3-0.9,3.8-1.6c0.1,0,0.4-0.2,0.7-0.3l0.3-0.1c0,0,0.1,0,0.1,0c0.4-0.2,0.7-0.4,1.1-0.6
				c0.5-0.3,1.1-0.6,1.6-0.9c0.1-0.1,0.5-0.3,0.8-0.5c0.2-0.1,0.5-0.3,0.6-0.3c0,0,0.1,0,0.1-0.1c0.8-0.5,1.7-1.1,2.6-1.7
				c0.5-0.3,1-0.7,1.5-1l0.1-0.1c0.1,0,0.1-0.1,0.2-0.1c0.1-0.1,0.2-0.1,0.4-0.3c0.8-0.6,1.7-1.4,2.8-2.3c0.5-0.4,0.9-0.8,1.4-1.2
				c0,0,0,0,0,0l0.3-0.3c0,0,0,0,0.1-0.1c0.2-0.2,0.5-0.5,0.7-0.7c3.5-3.4,6.4-7.1,9-11.4c0.1-0.2,0.3-0.5,0.4-0.7
				c-4.1,18.4-18.5,35.2-38.7,45c-4.8,2.3-9.9,4.3-15.1,5.7l0,0c-17.1,4.7-35.7,4.5-53.9-0.6c-11-3.1-19.4-8.6-25-16.3
				c-4.8-6.6-8-14.7-11.1-22.5c-1.1-2.9-2.3-5.8-3.6-8.7c-10-23.1-22.2-45.8-36.1-67.3c-4.7-7.2-9.8-14.3-14.7-21.2
				c-2.3-3.2-4.7-6.5-7-9.8c-8.2-11.6-12.4-21.1-13.7-31C12.7,89.8,14.3,79,18.8,69c4.7-10.3,13.7-18.6,24.9-22.9
				c2.1-0.8,4.3-1.5,6.6-2c-0.8,1.2-1.4,2.3-2,3.3C43.1,56.8,40.8,68.3,42,80z"/>
		</g>
		<g>
			<path fill="#050207" d="M227.1,185.6c0.5-7.9-0.1-15.8,0.8-23.7c0.4-3.9,1.4-7.8,2.9-11.5c1.7-4.1,4.1-7.6,6.9-11
				c5.3-6.6,11.8-12.2,17.1-18.9c5-6.3,9.2-13.4,12-21c5.7-15.9,4.2-34.8-7.9-47.4c-5.7-5.9-13.5-9.8-21.4-11.9
				c-3.8-1-8.3-1.5-12-0.7c-0.5,0.1-1,0.3-1.6,0.4c0.7-0.2-1,0.4-0.8,0.3c-0.1,0-0.2,0.1-0.3,0.1c-0.1,0-0.2,0.1-0.4,0.2
				c0,0-1,0.6-0.9,0.5c-1.9,1.2-3.2,2.3-5,3.8c0,0-1.9,2.4-5.3,5.9c0,0,0,0.1,0,0.1c0,2.9,0.6,5.7,1,8.6c0.6,3.8,0.8,7.6,0.7,11.4
				c-0.1,2.9-0.1,6.4-1.9,8.8c-1.3,1.7-3.6,1.2-5.2,0.5c-3.5-1.5-7.2-4.5-10.7-2.1c-3.2,2.2-4.6,7.8-6,11.4c-1.7,4.4-3.7,9.4-7.9,12
				c-5.1,3.1-12.3,0.6-16.6-2.7c-6.1-4.7-7.5-13.3-14.5-17.1c-3.9-2.1-8.4-2-12.2,0.2c-3.4,2-6.2,4.6-9.8,6
				c-6.1,2.4-13.5,2.5-17-3.9c-2-3.6-3-8-2.4-12c0.3-2.4,1.2-4.7,1.7-7c0.6-2.6,0.5-5.3,0.2-7.9c-6.2-2.3-12.6-3.6-19.3-3
				c-1,0.1-1.9,0.2-2.9,0.4c0,0-1,0.2-0.9,0.2c-0.4,0.1-0.8,0.2-1.2,0.3c-0.4,0.1-0.8,0.2-1.2,0.4c0.7-0.2-0.6,0.2-0.7,0.3
				c-0.1,0-0.2,0.1-0.2,0.1c-0.1,0-0.2,0.1-0.3,0.2c-0.2,0.1-0.4,0.2-0.6,0.3c0,0,0,0,0,0c-0.4,0.2-0.7,0.5-1,0.7
				c0.6-0.4-0.5,0.5-0.6,0.5c-0.4,0.3-1,0.9-1.6,1.7c-1.4,1.5-2.5,3.2-3.5,5c-4.1,7.4-5.6,16.3-4.8,24.7c0.9,9.2,5.5,17.4,10.7,24.9
				c5.5,7.9,11.3,15.5,16.6,23.5c10.6,16.2,19.8,33.2,27.6,50.9c3.6,8.2,6.3,17,11.4,24.5c4.9,7.2,12.5,11,20.6,13.3
				c8.4,2.3,17.4,3.2,26,2.5c4.5-0.4,8.5-1.1,12.6-2.4c0.5-0.2,1-0.3,1.5-0.5c0.1,0,0.2-0.1,0.3-0.1c0.1,0,0.2-0.1,0.5-0.2
				c1-0.4,2-0.8,2.9-1.2c0.1,0,0.5-0.2,0.7-0.3c0.3-0.1,0.6-0.3,0.9-0.4c0.4-0.2,0.8-0.4,1.2-0.7c0.1-0.1,0.9-0.5,1.1-0.6
				c0.7-0.4,1.3-0.9,2-1.3c0.4-0.3,0.8-0.5,1.1-0.8c0,0,0.1,0,0.1-0.1c0.1,0,0.2-0.1,0.3-0.3c0.7-0.6,1.5-1.2,2.2-1.8
				c0.4-0.3,0.7-0.6,1-0.9c0.1-0.1,0.2-0.2,0.3-0.3c0.2-0.2,0.4-0.4,0.5-0.5c2.7-2.7,4.9-5.5,6.9-8.7
				C224.9,200.8,226.6,193.4,227.1,185.6z"/>
		</g>
		<g>
			<path fill="#BE4139" d="M222.9,147.2c-1.7,4.2-2.9,8.8-3.5,13.7c-0.6,5.1-0.6,10-0.6,14.7c0,3.3,0,6.4-0.2,9.4
				c-0.5,7.4-2,13.1-5,18c-1.6,2.7-3.4,4.9-5.6,7.1c-0.2,0.2-0.3,0.3-0.4,0.4l-0.2,0.2c-0.3,0.3-0.6,0.5-0.8,0.7
				c-0.7,0.6-1.3,1.1-1.8,1.5c-0.1,0.1-0.2,0.1-0.3,0.2c-0.3,0.2-0.6,0.4-0.9,0.6c-0.6,0.4-1.1,0.7-1.6,1c-0.1,0.1-0.3,0.1-0.4,0.2
				c-0.2,0.1-0.3,0.2-0.5,0.3c-0.3,0.2-0.7,0.4-1,0.5c-0.2,0.1-0.4,0.2-0.7,0.3l-0.1,0.1c-0.1,0.1-0.3,0.1-0.4,0.2
				c-1,0.4-1.8,0.8-2.5,1c-0.2,0.1-0.3,0.1-0.4,0.1l-0.1,0c-0.4,0.2-0.9,0.3-1.3,0.4c-3.6,1.1-7,1.7-10.8,2.1
				c-7.5,0.6-15.5-0.1-23-2.2c-7.7-2.1-12.7-5.3-15.9-9.9c-3.2-4.6-5.4-10.1-7.7-16c-0.9-2.3-1.9-4.7-2.9-7.1
				c-8-18.3-17.5-35.8-28.2-52.2c-3.3-5.1-6.9-10-10.3-14.7c-2.1-2.9-4.3-6-6.4-9c-3.9-5.6-8.4-13-9.2-20.8
				C79.4,81,80.8,74,83.9,68.5c0.9-1.6,1.6-2.7,2.3-3.5c0.4-0.5,0.7-0.7,0.8-0.8c0.1-0.1,0.3-0.2,0.4-0.3c0.1,0,0.1-0.1,0.2-0.1
				c0,0,0,0,0,0c0.2-0.1,0.3-0.1,0.5-0.2c0.1,0,0.1-0.1,0.2-0.1c0.1,0,0.1,0,0.2-0.1l0.3-0.1c0.1,0,0.2-0.1,0.3-0.1
				c0.3,0,0.6-0.1,1-0.2c0.7-0.1,1.3-0.2,1.9-0.2c3.2-0.3,6.5,0,10,0.8c-0.1,0.6-0.3,1.1-0.5,1.8c-0.5,1.7-1,3.6-1.3,5.7
				c-0.8,5.8,0.4,12,3.4,17.4c4.6,8.3,14,11.6,24.3,8.7c1.1-0.3,2.2-0.7,3.3-1.1c3.3-1.3,5.8-3.1,8-4.6c1-0.7,2-1.4,3-2
				c1.2-0.7,2.5-0.8,3.8-0.1c1.8,1,3.3,3.4,4.9,6.1c2.1,3.4,4.4,7.2,8.4,10.3c5.2,4,13.6,7.5,21.7,5.2c1.6-0.5,3.2-1.1,4.6-2
				c6.7-4.2,9.5-11.4,11.4-16.2c0.3-0.8,0.6-1.7,0.9-2.5c0.3-0.9,0.8-2.4,1.3-3.5c0.2,0.1,0.3,0.2,0.5,0.3c0.8,0.4,1.6,0.8,2.5,1.2
				c3.2,1.4,6.5,1.8,9.4,0.9c2.4-0.7,4.5-2.1,6-4.1c3.5-4.5,3.6-9.9,3.7-13.5l0-0.3c0.1-4.3-0.1-8.5-0.8-12.8
				c-0.1-0.6-0.2-1.3-0.3-1.9c-0.1-0.8-0.3-1.7-0.4-2.5c1.2-1.3,2.1-2.4,2.6-3.1c1.2-1,2-1.7,3.1-2.4c0.2-0.1,0.3-0.2,0.5-0.3
				c0.1,0,0.1-0.1,0.2-0.1c0.3-0.1,0.6-0.2,0.9-0.4c0.1,0,0.1,0,0.2-0.1c1.8-0.4,4.9-0.2,7.8,0.6c7.1,1.9,13.3,5.3,17.5,9.6
				c4.5,4.6,7.3,10.7,8.3,17.7c1,6.8,0.2,14-2.3,20.8c-2.3,6.3-5.8,12.5-10.6,18.5c-2.5,3.1-5.3,6-8.2,9.1c-2.9,3-6,6.2-8.8,9.7
				C227.2,138.7,224.6,142.8,222.9,147.2z"/>
		</g>
		<g>
			<path fill="#DEE0A0" d="M61.7,108.3c2.6,3.7,5.3,7.5,8,11.1c4.2,5.8,8.5,11.8,12.6,17.9c13,19.9,24.6,41.2,34.3,63.4
				c1.2,2.8,2.4,5.7,3.5,8.6c2.9,7.2,5.9,14.7,10.2,21c4.8,7,12.5,11.9,23.5,14.9c10.1,2.8,20.8,3.8,30.9,3
				c5.3-0.4,9.9-1.3,14.8-2.8c0.6-0.2,1.2-0.4,1.8-0.6l0.3-0.1c0.1,0,0.3-0.1,0.6-0.2c1-0.4,2.1-0.8,3.4-1.4c0.1,0,0.3-0.2,0.6-0.3
				l0.2-0.1c0.3-0.2,0.7-0.3,1-0.5c0.5-0.2,1-0.5,1.4-0.8c0.1-0.1,0.4-0.2,0.7-0.4c0.2-0.1,0.4-0.3,0.6-0.3c0.7-0.5,1.5-0.9,2.3-1.5
				c0.4-0.3,0.9-0.6,1.3-0.9l0,0c0.1-0.1,0.2-0.2,0.4-0.3c0.7-0.6,1.5-1.2,2.5-2.1c0.4-0.3,0.8-0.7,1.2-1.1l0.3-0.3
				c0.2-0.2,0.4-0.4,0.6-0.6c3.1-3,5.6-6.3,7.9-10c4.2-6.9,6.6-15.2,7.2-25.4c0-0.7,0.1-1.5,0.1-2.2c0.1-2.9,0.2-5.8,0.2-8.7
				c0-0.4,0-0.8,0-1.1c0-1.6,0-3.2,0-4.8c0.1-4.2,0.2-8.4,0.7-12.7c0.6-5.4,1.9-10.5,3.8-15.1c1.9-4.7,4.8-9.3,9-14.5
				c3.3-4.1,6.9-7.8,10.4-11.5c3.6-3.8,7.3-7.6,10.6-11.7c6.4-8,11.1-16.3,14.2-24.8c3.4-9.5,4.5-19.6,3.2-29
				c-1.4-10-5.6-18.9-12.2-25.7c-6-6.2-14.8-11.1-24.8-13.8c-4.8-1.3-9.6-1.6-13-0.8c-0.4,0.1-0.8,0.2-1.2,0.3
				c-0.1,0-0.1,0.1-0.2,0.1c-0.1,0.1-0.3,0.1-0.5,0.2c-0.3,0.1-0.5,0.2-0.7,0.2l0,0c-0.1,0.1-0.2,0.1-0.4,0.2c0,0-0.1,0-0.1,0.1
				l-0.4,0.2c-0.3,0.2-0.5,0.3-0.6,0.4c-2,1.2-3.4,2.4-5.3,4c-2.6,3.3-25,30.4-54,38.4c0,0,0,0,0,0c-4.3,1.2-8.6,1.9-12.8,2.2
				c-12.1,0.7-23.7-3.7-32.4-7.6c-4.9-2.2-9.7-4.7-14.5-7.2c-10.8-5.7-21.8-11.5-33.5-13c-2.8-0.4-5.7-0.5-8.6-0.3
				c-0.3,0-0.6,0-0.9,0.1c-0.9,0.1-1.9,0.2-3.1,0.4c-0.4,0.1-0.8,0.2-1.4,0.3c-0.2,0.1-0.5,0.1-0.7,0.2l-0.4,0.1
				c-0.3,0.1-0.5,0.2-0.8,0.3c-0.1,0-0.2,0.1-0.3,0.1c-0.2,0.1-0.4,0.1-0.6,0.2l-0.2,0.1c-0.1,0-0.1,0-0.1,0.1
				c-0.1,0-0.2,0.1-0.3,0.2c-0.1,0.1-0.3,0.1-0.4,0.2c0,0,0,0,0,0c-0.2,0.1-0.5,0.3-0.7,0.5c0,0,0,0,0,0c-0.1,0.1-0.2,0.2-0.3,0.2
				c-0.2,0.1-0.4,0.3-0.5,0.4L60,43.8c-0.2,0.1-0.7,0.6-1.6,1.7c-1.3,1.4-2.4,3.1-3.8,5.5c-4.5,8-6.4,18.1-5.5,28.4
				C50.2,90.6,56.4,100.7,61.7,108.3z M87.2,46.4c-0.2,0-0.4,0-0.7,0l0,0C86.7,46.4,87,46.4,87.2,46.4z M93.9,49.5
				c-0.4-0.4-0.8-0.8-1.2-1.2C93.2,48.7,93.6,49.1,93.9,49.5z M227.9,161.9c-0.9,7.9-0.3,15.8-0.8,23.7c-0.5,7.8-2.2,15.2-6.2,21.9
				c-2,3.2-4.2,6-6.9,8.7c-0.2,0.2-0.4,0.4-0.5,0.5c-0.1,0.1-0.2,0.1-0.3,0.3c-0.3,0.3-0.7,0.6-1,0.9c-0.7,0.6-1.4,1.2-2.2,1.8
				c-0.2,0.1-0.3,0.2-0.3,0.3c0,0-0.1,0-0.1,0.1c-0.4,0.3-0.8,0.5-1.1,0.8c-0.7,0.4-1.3,0.9-2,1.3c-0.2,0.1-1,0.6-1.1,0.6
				c-0.4,0.2-0.8,0.4-1.2,0.7c-0.3,0.1-0.6,0.3-0.9,0.4c-0.2,0.1-0.6,0.3-0.7,0.3c-1,0.4-1.9,0.8-2.9,1.2c-0.2,0.1-0.4,0.2-0.5,0.2
				c-0.1,0-0.2,0.1-0.3,0.1c-0.5,0.2-1,0.3-1.5,0.5c-4.1,1.3-8.2,2-12.6,2.4c-8.7,0.7-17.7-0.2-26-2.5c-8.2-2.3-15.7-6.1-20.6-13.3
				c-5.1-7.4-7.8-16.3-11.4-24.5c-7.8-17.7-17-34.8-27.6-50.9c-5.3-8-11.1-15.6-16.6-23.5c-5.2-7.4-9.8-15.7-10.7-24.9
				c-0.8-8.4,0.6-17.3,4.8-24.7c1-1.8,2.1-3.5,3.5-5c0.7-0.7,1.2-1.3,1.6-1.7c0.1-0.1,1.2-0.9,0.6-0.5c0.3-0.2,0.7-0.5,1-0.7
				c0,0,0,0,0,0c0.2-0.1,0.4-0.2,0.6-0.3c0.2-0.1,0.3-0.1,0.3-0.2c0.1,0,0.1-0.1,0.2-0.1c0.1,0,1.4-0.5,0.7-0.3
				c0.4-0.1,0.8-0.3,1.2-0.4c0.4-0.1,0.8-0.2,1.2-0.3c0,0,1-0.2,0.9-0.2c1-0.2,1.9-0.3,2.9-0.4c6.8-0.6,13.2,0.8,19.3,3
				c0.3,2.6,0.4,5.3-0.2,7.9c-0.6,2.3-1.4,4.6-1.7,7c-0.6,4.1,0.4,8.4,2.4,12c3.6,6.3,10.9,6.3,17,3.9c3.7-1.5,6.5-4.1,9.8-6
				c3.8-2.2,8.3-2.4,12.2-0.2c6.9,3.8,8.4,12.4,14.5,17.1c4.3,3.3,11.5,5.9,16.6,2.7c4.2-2.6,6.2-7.6,7.9-12c1.4-3.6,2.7-9.2,6-11.4
				c3.5-2.3,7.2,0.6,10.7,2.1c1.7,0.7,3.9,1.2,5.2-0.5c1.8-2.4,1.9-5.9,1.9-8.8c0.1-3.8-0.1-7.6-0.7-11.4c-0.4-2.8-1-5.7-1-8.6
				c0,0,0-0.1,0-0.1c3.4-3.5,5.3-5.9,5.3-5.9c1.8-1.5,3.1-2.6,5-3.8c-0.1,0.1,1-0.5,0.9-0.5c0.2-0.1,0.4-0.2,0.4-0.2
				c0.1,0,0.2-0.1,0.3-0.1c-0.1,0,1.5-0.6,0.8-0.3c0.5-0.2,1-0.3,1.6-0.4c3.7-0.9,8.2-0.4,12,0.7c7.9,2.1,15.7,6,21.4,11.9
				c12.1,12.5,13.6,31.5,7.9,47.4c-2.7,7.6-7,14.7-12,21c-5.3,6.7-11.7,12.3-17.1,18.9c-2.8,3.4-5.2,7-6.9,11
				C229.2,154.1,228.3,157.9,227.9,161.9z"/>
		</g>
		<g>
			<g>
				<path fill="#AF1722" d="M214,151.5c-2-7.1-7.6-11.6-12.6-10.3c-5,1.4-7.5,8.2-5.5,15.3s7.6,11.6,12.6,10.3
					C213.5,165.4,216,158.6,214,151.5z M212,152.1c1.5,5.5-0.4,10.8-4.3,11.8c-3.9,1.1-8.2-2.5-9.7-7.9c-1.5-5.5,0.4-10.8,4.3-11.8
					C206.1,143.1,210.4,146.6,212,152.1z"/>
			</g>
			<g>
				
					<ellipse transform="matrix(0.2676 0.9635 -0.9635 0.2676 298.5258 -84.6732)" fill="#DEE0A0" cx="205" cy="154" rx="10.3" ry="7.3"/>
			</g>
		</g>
		<g>
			<g>
				<path fill="#AF1722" d="M156.8,160.7c3.6-6.4,2.8-13.6-1.7-16.2c-4.5-2.5-11.1,0.6-14.7,7c-3.6,6.4-2.8,13.6,1.7,16.2
					C146.7,170.2,153.2,167.1,156.8,160.7z M155,159.7c-2.8,4.9-7.9,7.4-11.4,5.4c-3.5-2-4.1-7.6-1.3-12.5c2.8-4.9,7.9-7.4,11.4-5.4
					C157.1,149.1,157.7,154.7,155,159.7z"/>
			</g>
			<g>
				
					<ellipse transform="matrix(-0.4891 0.8722 -0.8722 -0.4891 357.4538 102.8152)" fill="#DEE0A0" cx="148.6" cy="156.1" rx="10.3" ry="7.3"/>
			</g>
		</g>
		<g opacity="0.54">
			<g>
				<defs>
					<path id="SVGID_1_" d="M211,181.4c0,0,1.6,29.9-26,32.1c-27.5,2.2-38.9-13.6-42.8-29"/>
				</defs>
				<clipPath id="SVGID_2_">
					<use xlink:href="#SVGID_1_"  overflow="visible"/>
				</clipPath>
				<polygon clip-path="url(#SVGID_2_)" fill="#392323" points="211.3,215.8 212.5,215.7 212.5,215.8 				"/>
				<polygon clip-path="url(#SVGID_2_)" fill="#3B2323" points="206.6,215.8 212.5,215.4 212.5,215.7 211.3,215.8 				"/>
				<polygon clip-path="url(#SVGID_2_)" fill="#3C2323" points="202,215.8 212.5,215.1 212.5,215.4 206.6,215.8 				"/>
				<polygon clip-path="url(#SVGID_2_)" fill="#3E2423" points="197.3,215.8 212.5,214.8 212.5,215.1 202,215.8 				"/>
				<polygon clip-path="url(#SVGID_2_)" fill="#3F2423" points="192.7,215.8 212.5,214.5 212.5,214.8 197.3,215.8 				"/>
				<polygon clip-path="url(#SVGID_2_)" fill="#402423" points="188,215.8 212.5,214.2 212.5,214.5 192.7,215.8 				"/>
				<polygon clip-path="url(#SVGID_2_)" fill="#422424" points="183.4,215.8 212.5,213.9 212.5,214.2 188,215.8 				"/>
				<polygon clip-path="url(#SVGID_2_)" fill="#432524" points="178.7,215.8 212.5,213.6 212.5,213.9 183.4,215.8 				"/>
				<polygon clip-path="url(#SVGID_2_)" fill="#452524" points="174.1,215.8 212.5,213.3 212.5,213.6 178.7,215.8 				"/>
				<polygon clip-path="url(#SVGID_2_)" fill="#462524" points="169.4,215.8 212.5,213 212.5,213.3 174.1,215.8 				"/>
				<polygon clip-path="url(#SVGID_2_)" fill="#482524" points="164.8,215.8 212.5,212.7 212.5,213 169.4,215.8 				"/>
				<polygon clip-path="url(#SVGID_2_)" fill="#492624" points="160.1,215.8 212.5,212.4 212.5,212.7 164.8,215.8 				"/>
				<polygon clip-path="url(#SVGID_2_)" fill="#4B2625" points="155.5,215.8 212.5,212.1 212.5,212.4 160.1,215.8 				"/>
				<polygon clip-path="url(#SVGID_2_)" fill="#4C2625" points="150.8,215.8 212.5,211.8 212.5,212.1 155.5,215.8 				"/>
				<polygon clip-path="url(#SVGID_2_)" fill="#4E2625" points="146.2,215.8 212.5,211.5 212.5,211.8 150.8,215.8 				"/>
				<polygon clip-path="url(#SVGID_2_)" fill="#4F2725" points="142.7,215.8 142.7,215.7 212.5,211.2 212.5,211.5 146.2,215.8 				
					"/>
				<polygon clip-path="url(#SVGID_2_)" fill="#502725" points="142.7,215.7 142.7,215.4 212.5,210.9 212.5,211.2 				"/>
				<polygon clip-path="url(#SVGID_2_)" fill="#522725" points="142.7,215.4 142.7,215.1 212.5,210.6 212.5,210.9 				"/>
				<polygon clip-path="url(#SVGID_2_)" fill="#532725" points="142.7,215.1 142.7,214.8 212.5,210.3 212.5,210.6 				"/>
				<polygon clip-path="url(#SVGID_2_)" fill="#552726" points="142.7,214.8 142.7,214.5 212.5,210 212.5,210.3 				"/>
				<polygon clip-path="url(#SVGID_2_)" fill="#562826" points="142.7,214.5 142.6,214.2 212.5,209.7 212.5,210 				"/>
				<polygon clip-path="url(#SVGID_2_)" fill="#582826" points="142.6,214.2 142.6,213.9 212.5,209.4 212.5,209.7 				"/>
				<polygon clip-path="url(#SVGID_2_)" fill="#592826" points="142.6,213.9 142.6,213.6 212.5,209.1 212.5,209.4 				"/>
				<polygon clip-path="url(#SVGID_2_)" fill="#5A2826" points="142.6,213.6 142.6,213.3 212.5,208.8 212.5,209.1 				"/>
				<polygon clip-path="url(#SVGID_2_)" fill="#5C2926" points="142.6,213.3 142.6,213 212.5,208.5 212.5,208.8 				"/>
				<polygon clip-path="url(#SVGID_2_)" fill="#5D2927" points="142.6,213 142.5,212.7 212.5,208.2 212.5,208.5 				"/>
				<polygon clip-path="url(#SVGID_2_)" fill="#5F2927" points="142.5,212.7 142.5,212.4 212.5,207.9 212.5,208.2 				"/>
				<polygon clip-path="url(#SVGID_2_)" fill="#602927" points="142.5,212.4 142.5,212.1 212.5,207.6 212.5,207.9 				"/>
				<polygon clip-path="url(#SVGID_2_)" fill="#612927" points="142.5,212.1 142.5,211.8 212.5,207.3 212.5,207.6 				"/>
				<polygon clip-path="url(#SVGID_2_)" fill="#632A27" points="142.5,211.8 142.5,211.5 212.5,207 212.5,207.3 				"/>
				<polygon clip-path="url(#SVGID_2_)" fill="#642A27" points="142.5,211.5 142.4,211.2 212.5,206.7 212.5,207 				"/>
				<polygon clip-path="url(#SVGID_2_)" fill="#652A27" points="142.4,211.2 142.4,210.9 212.5,206.4 212.5,206.7 				"/>
				<polygon clip-path="url(#SVGID_2_)" fill="#672A28" points="142.4,210.9 142.4,210.6 212.5,206.1 212.5,206.4 				"/>
				<polygon clip-path="url(#SVGID_2_)" fill="#682B28" points="142.4,210.6 142.4,210.3 212.5,205.8 212.5,206.1 				"/>
				<polygon clip-path="url(#SVGID_2_)" fill="#6A2B28" points="142.4,210.3 142.4,210 212.5,205.5 212.5,205.8 				"/>
				<polygon clip-path="url(#SVGID_2_)" fill="#6B2B28" points="142.4,210 142.3,209.7 212.5,205.2 212.5,205.5 				"/>
				<polygon clip-path="url(#SVGID_2_)" fill="#6C2B28" points="142.3,209.7 142.3,209.4 212.5,204.9 212.5,205.2 				"/>
				<polygon clip-path="url(#SVGID_2_)" fill="#6E2B28" points="142.3,209.4 142.3,209.1 212.5,204.6 212.5,204.9 				"/>
				<polygon clip-path="url(#SVGID_2_)" fill="#6F2C28" points="142.3,209.1 142.3,208.8 212.5,204.3 212.5,204.6 				"/>
				<polygon clip-path="url(#SVGID_2_)" fill="#702C29" points="142.3,208.8 142.3,208.5 212.5,204 212.5,204.3 				"/>
				<polygon clip-path="url(#SVGID_2_)" fill="#722C29" points="142.3,208.5 142.3,208.2 212.5,203.7 212.5,204 				"/>
				<polygon clip-path="url(#SVGID_2_)" fill="#732C29" points="142.3,208.2 142.2,207.9 212.5,203.4 212.5,203.7 				"/>
				<polygon clip-path="url(#SVGID_2_)" fill="#742C29" points="142.2,207.9 142.2,207.6 212.5,203.1 212.5,203.4 				"/>
				<polygon clip-path="url(#SVGID_2_)" fill="#752D29" points="142.2,207.6 142.2,207.3 212.5,202.8 212.5,203.1 				"/>
				<polygon clip-path="url(#SVGID_2_)" fill="#772D29" points="142.2,207.3 142.2,207 212.5,202.5 212.5,202.8 				"/>
				<polygon clip-path="url(#SVGID_2_)" fill="#782D29" points="142.2,207 142.2,206.8 142.2,206.7 212.5,202.2 212.5,202.5 				"/>
				<polygon clip-path="url(#SVGID_2_)" fill="#792D2A" points="142.2,206.4 212.5,201.9 212.5,202.2 142.2,206.7 				"/>
				<polygon clip-path="url(#SVGID_2_)" fill="#7B2E2A" points="142.2,206.1 212.5,201.6 212.5,201.9 142.2,206.4 				"/>
				<polygon clip-path="url(#SVGID_2_)" fill="#7C2E2A" points="142.2,205.8 212.5,201.3 212.5,201.6 142.2,206.1 				"/>
				<polygon clip-path="url(#SVGID_2_)" fill="#7D2E2A" points="142.2,205.5 212.5,201 212.5,201.3 142.2,205.8 				"/>
				<polygon clip-path="url(#SVGID_2_)" fill="#7F2E2A" points="142.2,205.2 212.5,200.7 212.5,201 142.2,205.5 				"/>
				<polygon clip-path="url(#SVGID_2_)" fill="#802E2A" points="142.2,204.9 212.5,200.4 212.5,200.7 142.2,205.2 				"/>
				<polygon clip-path="url(#SVGID_2_)" fill="#812F2A" points="142.2,204.6 212.5,200.1 212.5,200.4 142.2,204.9 				"/>
				<polygon clip-path="url(#SVGID_2_)" fill="#822F2A" points="142.2,204.3 212.5,199.8 212.5,200.1 142.2,204.6 				"/>
				<polygon clip-path="url(#SVGID_2_)" fill="#842F2B" points="142.2,204 212.5,199.5 212.5,199.8 142.2,204.3 				"/>
				<polygon clip-path="url(#SVGID_2_)" fill="#852F2B" points="142.2,203.7 212.5,199.2 212.5,199.5 142.2,204 				"/>
				<polygon clip-path="url(#SVGID_2_)" fill="#862F2B" points="142.2,203.4 212.5,198.9 212.5,199.2 142.2,203.7 				"/>
				<polygon clip-path="url(#SVGID_2_)" fill="#87302B" points="142.2,203.1 212.5,198.6 212.5,198.9 142.2,203.4 				"/>
				<polygon clip-path="url(#SVGID_2_)" fill="#89302B" points="142.2,202.8 212.5,198.3 212.5,198.6 142.2,203.1 				"/>
				<polygon clip-path="url(#SVGID_2_)" fill="#8A302B" points="142.2,202.5 212.5,198 212.5,198.3 142.2,202.8 				"/>
				<polygon clip-path="url(#SVGID_2_)" fill="#8B302B" points="142.2,202.2 212.5,197.7 212.5,198 142.2,202.5 				"/>
				<polygon clip-path="url(#SVGID_2_)" fill="#8C302C" points="142.2,201.9 212.5,197.4 212.5,197.7 142.2,202.2 				"/>
				<polygon clip-path="url(#SVGID_2_)" fill="#8D312C" points="142.2,201.6 212.5,197.1 212.5,197.4 142.2,201.9 				"/>
				<polygon clip-path="url(#SVGID_2_)" fill="#8F312C" points="142.2,201.3 212.5,196.8 212.5,197.1 142.2,201.6 				"/>
				<polygon clip-path="url(#SVGID_2_)" fill="#90312C" points="142.2,201 212.5,196.5 212.5,196.8 142.2,201.3 				"/>
				<polygon clip-path="url(#SVGID_2_)" fill="#91312C" points="142.2,200.7 212.5,196.2 212.5,196.5 142.2,201 				"/>
				<polygon clip-path="url(#SVGID_2_)" fill="#92312C" points="142.2,200.4 212.5,195.9 212.5,196.2 142.2,200.7 				"/>
				<polygon clip-path="url(#SVGID_2_)" fill="#93312C" points="142.2,200.1 212.5,195.6 212.5,195.9 142.2,200.4 				"/>
				<polygon clip-path="url(#SVGID_2_)" fill="#95322C" points="142.2,199.8 212.5,195.3 212.5,195.6 142.2,200.1 				"/>
				<polygon clip-path="url(#SVGID_2_)" fill="#96322D" points="142.2,199.5 212.5,195 212.5,195.3 142.2,199.8 				"/>
				<polygon clip-path="url(#SVGID_2_)" fill="#97322D" points="142.2,199.2 212.5,194.7 212.5,195 142.2,199.5 				"/>
				<polygon clip-path="url(#SVGID_2_)" fill="#98322D" points="142.2,198.9 212.5,194.4 212.5,194.7 142.2,199.2 				"/>
				<polygon clip-path="url(#SVGID_2_)" fill="#99322D" points="142.2,198.6 212.5,194.1 212.5,194.4 142.2,198.9 				"/>
				<polygon clip-path="url(#SVGID_2_)" fill="#9A332D" points="142.2,198.3 212.5,193.8 212.5,194.1 142.2,198.6 				"/>
				<polygon clip-path="url(#SVGID_2_)" fill="#9C332D" points="142.2,198 212.5,193.5 212.5,193.8 142.2,198.3 				"/>
				<polygon clip-path="url(#SVGID_2_)" fill="#9D332D" points="142.2,197.7 212.5,193.2 212.5,193.5 142.2,198 				"/>
				<polygon clip-path="url(#SVGID_2_)" fill="#9E332D" points="142.2,197.4 212.5,192.9 212.5,193.2 142.2,197.7 				"/>
				<polygon clip-path="url(#SVGID_2_)" fill="#9F332E" points="142.2,197.1 212.5,192.6 212.5,192.9 142.2,197.4 				"/>
				<polygon clip-path="url(#SVGID_2_)" fill="#A0342E" points="142.2,196.8 212.5,192.3 212.5,192.6 142.2,197.1 				"/>
				<polygon clip-path="url(#SVGID_2_)" fill="#A1342E" points="142.2,196.5 212.5,192 212.5,192.3 142.2,196.8 				"/>
				<polygon clip-path="url(#SVGID_2_)" fill="#A2342E" points="142.2,196.2 212.5,191.7 212.5,192 142.2,196.5 				"/>
				<polygon clip-path="url(#SVGID_2_)" fill="#A4342E" points="142.2,195.9 212.5,191.4 212.5,191.7 142.2,196.2 				"/>
				<polygon clip-path="url(#SVGID_2_)" fill="#A5342E" points="142.2,195.6 212.5,191.1 212.5,191.4 142.2,195.9 				"/>
				<polygon clip-path="url(#SVGID_2_)" fill="#A6342E" points="142.2,195.3 212.5,190.8 212.5,191.1 142.2,195.6 				"/>
				<polygon clip-path="url(#SVGID_2_)" fill="#A7352E" points="142.2,195 212.5,190.5 212.5,190.8 142.2,195.3 				"/>
				<polygon clip-path="url(#SVGID_2_)" fill="#A8352F" points="142.2,194.7 212.5,190.2 212.5,190.5 142.2,195 				"/>
				<polygon clip-path="url(#SVGID_2_)" fill="#A9352F" points="142.2,194.4 212.5,189.9 212.5,190.2 142.2,194.7 				"/>
				<polygon clip-path="url(#SVGID_2_)" fill="#AA352F" points="142.2,194.1 212.5,189.6 212.5,189.9 142.2,194.4 				"/>
				<polygon clip-path="url(#SVGID_2_)" fill="#AB352F" points="142.2,193.8 212.5,189.3 212.5,189.6 142.2,194.1 				"/>
				<polygon clip-path="url(#SVGID_2_)" fill="#AC352F" points="142.2,193.5 212.5,189 212.5,189.3 142.2,193.8 				"/>
				<polygon clip-path="url(#SVGID_2_)" fill="#AD362F" points="142.2,193.2 212.5,188.7 212.5,189 142.2,193.5 				"/>
				<polygon clip-path="url(#SVGID_2_)" fill="#AE362F" points="142.2,192.9 212.5,188.4 212.5,188.7 142.2,193.2 				"/>
				<polygon clip-path="url(#SVGID_2_)" fill="#AF362F" points="142.2,192.6 212.5,188.1 212.5,188.4 142.2,192.9 				"/>
				<polygon clip-path="url(#SVGID_2_)" fill="#B0362F" points="142.2,192.3 212.5,187.8 212.5,188.1 142.2,192.6 				"/>
				<polygon clip-path="url(#SVGID_2_)" fill="#B23630" points="142.2,192 212.5,187.5 212.5,187.8 142.2,192.3 				"/>
				<polygon clip-path="url(#SVGID_2_)" fill="#B33630" points="142.2,191.7 212.5,187.2 212.5,187.5 142.2,192 				"/>
				<polygon clip-path="url(#SVGID_2_)" fill="#B43730" points="142.2,191.4 212.5,186.9 212.5,187.2 142.2,191.7 				"/>
				<polygon clip-path="url(#SVGID_2_)" fill="#B53730" points="142.2,191.1 212.5,186.6 212.5,186.9 142.2,191.4 				"/>
				<polygon clip-path="url(#SVGID_2_)" fill="#B63730" points="142.2,190.8 212.5,186.3 212.5,186.6 142.2,191.1 				"/>
				<polygon clip-path="url(#SVGID_2_)" fill="#B73730" points="142.2,190.5 212.5,186 212.5,186.3 142.2,190.8 				"/>
				<polygon clip-path="url(#SVGID_2_)" fill="#B83730" points="142.2,190.2 212.5,185.7 212.5,186 142.2,190.5 				"/>
				<polygon clip-path="url(#SVGID_2_)" fill="#B93730" points="142.2,189.9 212.5,185.4 212.5,185.7 142.2,190.2 				"/>
				<polygon clip-path="url(#SVGID_2_)" fill="#BA3830" points="142.2,189.6 212.5,185.1 212.5,185.4 142.2,189.9 				"/>
				<polygon clip-path="url(#SVGID_2_)" fill="#BB3831" points="142.2,189.3 212.5,184.8 212.5,185.1 142.2,189.6 				"/>
				<polygon clip-path="url(#SVGID_2_)" fill="#BC3831" points="142.2,189 212.5,184.5 212.5,184.8 142.2,189.3 				"/>
				<polygon clip-path="url(#SVGID_2_)" fill="#BD3831" points="142.2,188.7 212.5,184.2 212.5,184.5 142.2,189 				"/>
				<polygon clip-path="url(#SVGID_2_)" fill="#BE3831" points="142.2,188.4 212.5,183.9 212.5,184.2 142.2,188.7 				"/>
				<polygon clip-path="url(#SVGID_2_)" fill="#BE3831" points="142.2,188.1 212.5,183.6 212.5,183.9 142.2,188.4 				"/>
				<polygon clip-path="url(#SVGID_2_)" fill="#BF3931" points="142.2,187.8 212.5,183.3 212.5,183.6 142.2,188.1 				"/>
				<polygon clip-path="url(#SVGID_2_)" fill="#C03931" points="142.2,187.5 212.5,183 212.5,183.2 212.5,183.3 142.2,187.8 				"/>
				<polygon clip-path="url(#SVGID_2_)" fill="#C13931" points="142.2,187.2 212.5,182.7 212.5,183 142.2,187.5 				"/>
				<polygon clip-path="url(#SVGID_2_)" fill="#C23931" points="142.2,186.9 212.5,182.4 212.5,182.7 142.2,187.2 				"/>
				<polygon clip-path="url(#SVGID_2_)" fill="#C33931" points="142.2,186.6 212.4,182.1 212.5,182.4 142.2,186.9 				"/>
				<polygon clip-path="url(#SVGID_2_)" fill="#C43932" points="142.2,186.3 212.4,181.8 212.4,182.1 142.2,186.6 				"/>
				<polygon clip-path="url(#SVGID_2_)" fill="#C53932" points="142.2,186 212.4,181.5 212.4,181.8 142.2,186.3 				"/>
				<polygon clip-path="url(#SVGID_2_)" fill="#C63A32" points="142.2,185.7 208.9,181.4 212.4,181.4 212.4,181.5 142.2,186 				"/>
				<polygon clip-path="url(#SVGID_2_)" fill="#C73A32" points="142.2,185.4 204.3,181.4 208.9,181.4 142.2,185.7 				"/>
				<polygon clip-path="url(#SVGID_2_)" fill="#C83A32" points="142.2,185.1 199.7,181.4 204.3,181.4 142.2,185.4 				"/>
				<polygon clip-path="url(#SVGID_2_)" fill="#C93A32" points="142.2,184.9 195,181.4 199.7,181.4 142.2,185.1 				"/>
				<polygon clip-path="url(#SVGID_2_)" fill="#C93A32" points="142.2,184.6 190.4,181.4 195,181.4 142.2,184.9 				"/>
				<polygon clip-path="url(#SVGID_2_)" fill="#CA3A32" points="142.2,184.3 185.7,181.4 190.4,181.4 142.2,184.6 				"/>
				<polygon clip-path="url(#SVGID_2_)" fill="#CB3A32" points="142.2,184 181.1,181.4 185.7,181.4 142.2,184.3 				"/>
				<polygon clip-path="url(#SVGID_2_)" fill="#CC3B32" points="142.2,183.7 176.4,181.4 181.1,181.4 142.2,184 				"/>
				<polygon clip-path="url(#SVGID_2_)" fill="#CD3B32" points="142.2,183.4 171.8,181.4 176.4,181.4 142.2,183.7 				"/>
				<polygon clip-path="url(#SVGID_2_)" fill="#CE3B33" points="142.2,183.1 167.1,181.4 171.8,181.4 142.2,183.4 				"/>
				<polygon clip-path="url(#SVGID_2_)" fill="#CF3B33" points="142.2,182.8 162.5,181.4 167.1,181.4 142.2,183.1 				"/>
				<polygon clip-path="url(#SVGID_2_)" fill="#CF3B33" points="142.2,182.5 157.8,181.4 162.5,181.4 142.2,182.8 				"/>
				<polygon clip-path="url(#SVGID_2_)" fill="#D03B33" points="142.2,182.2 153.2,181.4 157.8,181.4 142.2,182.5 				"/>
				<polygon clip-path="url(#SVGID_2_)" fill="#D13B33" points="142.2,181.9 148.5,181.4 153.2,181.4 142.2,182.2 				"/>
				<polygon clip-path="url(#SVGID_2_)" fill="#D23B33" points="142.2,181.6 143.9,181.4 148.5,181.4 142.2,181.9 				"/>
				<polygon clip-path="url(#SVGID_2_)" fill="#D33C33" points="143.9,181.4 142.2,181.6 142.2,181.4 				"/>
			</g>
		</g>
	</g>
</g>
</svg>
