<?xml version="1.0" encoding="utf-8"?>
<!-- Generator: Adobe Illustrator 18.0.0, SVG Export Plug-In . SVG Version: 6.00 Build 0)  -->
<!DOCTYPE svg PUBLIC "-//W3C//DTD SVG 1.1//EN" "http://www.w3.org/Graphics/SVG/1.1/DTD/svg11.dtd">
<svg version="1.1" id="Layer_1" xmlns="http://www.w3.org/2000/svg" xmlns:xlink="http://www.w3.org/1999/xlink" x="0px" y="0px"
	 viewBox="0 0 784 225" enable-background="new 0 0 784 225" xml:space="preserve">
<g>
	<defs>
		<path id="SVGID_1_" d="M180.6,212.2H54c-20.1,0-36.6-16.5-36.6-36.6V48.9c0-20.1,16.5-36.6,36.6-36.6h126.7
			c20.1,0,36.6,16.5,36.6,36.6v126.7C217.2,195.7,200.7,212.2,180.6,212.2z"/>
	</defs>
	<clipPath id="SVGID_2_">
		<use xlink:href="#SVGID_1_"  overflow="visible"/>
	</clipPath>
	<circle clip-path="url(#SVGID_2_)" fill="#06AAF2" cx="121.5" cy="109.7" r="39.8"/>
	<g clip-path="url(#SVGID_2_)">
		<path fill="#FFFD00" d="M121.1,241.7c-52.5,0-100.1-31.1-121.2-79.2c-4.6-10.6,0.2-22.9,10.7-27.5c10.6-4.6,22.9,0.2,27.5,10.7
			c14.5,32.9,47.1,54.2,83,54.2c50,0,90.6-40.7,90.6-90.6s-40.7-90.6-90.6-90.6c-49.3,0-90,41.8-90.6,91.1
			C30.4,121.2,21,132,9.6,132c-0.1,0-0.2,0-0.3,0c-11.5,0-20.7-11.3-20.6-22.8c0.9-72,60.3-131.5,132.4-131.5
			c73,0,132.4,59,132.4,132C253.5,182.7,194.1,241.7,121.1,241.7z"/>
	</g>
	<g clip-path="url(#SVGID_2_)">
		<path fill="#FFFD00" d="M105.2,185.3c0,0-0.1,0-0.1,0c-40.5-8.1-66.5-49.5-58.4-90.1c8.2-41.1,48.5-68.2,89.5-60
			s67.8,48.2,59.6,89.2c-5.9,29.6-28.8,52.7-58.2,59.2c-5.3,1.2-10.5-2.2-11.7-7.5c-1.2-5.3,2.2-10.5,7.5-11.7
			c21.9-4.8,38.8-22.1,43.2-44c6.1-30.5-13.7-60.3-44.2-66.4S72.2,67.8,66.1,98.3c-6,30.1,13.4,59.8,43.4,66.2
			c5.3,1.1,8.5,7.2,7.4,12.5C115.8,182.2,110.5,186.4,105.2,185.3z"/>
	</g>
	<circle clip-path="url(#SVGID_2_)" fill="#1D1D1D" cx="149.8" cy="81.6" r="28.4"/>
</g>
<g>
	<path fill="#FFFD00" d="M229.2,68.8h46l0,7.7l-23,15.3h7.7c4.4,0,8,1.7,10.9,5.1s4.4,6.8,4.4,10.3v15.4c0,4.2-1.5,7.8-4.5,10.8
		s-6.6,4.5-10.8,4.5h-15.4c-9,0-14.1-5.1-15.3-15.3h7.7c0.4,5.1,2.9,7.6,7.6,7.6h7.7c2.1,0,3.9-0.7,5.4-2.2c1.5-1.5,2.3-3.3,2.3-5.4
		v-15.4c0-1.2-0.6-2.8-1.9-4.7c-1.3-1.9-3.2-2.9-5.8-2.9h-15.3v-7.7l23-15.3h-30.7V68.8z"/>
	<path fill="#FFFD00" d="M290.6,137.8v-69h30.7c4.2,0,7.8,1.5,10.8,4.5c3,3,4.5,6.6,4.5,10.8v38.4c0,4.1-1.5,7.7-4.5,10.8
		c-3,3-6.6,4.5-10.8,4.5H290.6z M305.9,130.1h7.7c2.1,0,3.9-0.8,5.4-2.3c1.5-1.5,2.2-3.3,2.2-5.4V84.1c0-2.1-0.8-3.9-2.3-5.4
		c-1.5-1.5-3.3-2.2-5.4-2.2h-7.7V130.1z"/>
	<path fill="#FFFD00" d="M351.9,84.1h15.3v7.7c0-2.6,0.6-4.5,1.9-5.8c1.3-1.3,3.2-1.9,5.8-1.9h7.7c4.2,0,7.8,1.5,10.8,4.5
		c3,3,4.5,6.6,4.5,10.8v23c0,4.2-1.5,7.8-4.5,10.8c-3,3-6.6,4.5-10.8,4.5h-15.4v15.3h-15.3V84.1z M367.2,130.1h7.7
		c2.1,0,3.9-0.7,5.4-2.2c1.5-1.5,2.3-3.3,2.3-5.4v-23c0-2.1-0.8-3.9-2.3-5.4c-1.5-1.5-3.3-2.2-5.4-2.2c-2.1,0-3.9,0.7-5.4,2.2
		s-2.3,3.3-2.3,5.4V130.1z"/>
	<path fill="#FFFD00" d="M443.9,107.1v-7.6c0-2.1-0.8-3.9-2.3-5.4c-1.5-1.5-3.3-2.3-5.4-2.3h-7.7c-4.5,0-7.1,2.6-7.6,7.7h-7.7
		c1.2-10.3,6.3-15.4,15.3-15.4h15.4c4.2,0,7.8,1.5,10.8,4.5c3,3,4.5,6.6,4.5,10.8v38.3h-15.3v-7.7c-0.6,5.1-3.2,7.7-7.7,7.7h-7.7
		c-4.2,0-7.8-1.5-10.8-4.5c-3-3-4.5-6.6-4.5-10.8v-0.1c0-4.2,1.5-7.8,4.5-10.8s6.6-4.5,10.8-4.5H443.9z M443.9,114.8h-7.7
		c-2.1,0-3.9,0.7-5.4,2.2s-2.3,3.3-2.3,5.4v0.1c0,2.1,0.7,3.8,2.2,5.4c1.5,1.5,3.3,2.3,5.4,2.3s3.9-0.8,5.4-2.3
		c1.5-1.5,2.2-3.3,2.2-5.4V114.8z"/>
	<path fill="#FFFD00" d="M489.9,137.8h-15.3V84.1h15.3v15.4c0.6-5.1,2.2-9,4.7-11.5c2.6-2.6,6.1-3.8,10.6-3.8h7.6v15.4h-15.3
		c-2.1,0-3.9,0.7-5.4,2.2c-1.5,1.5-2.3,3.3-2.3,5.4V137.8z"/>
	<path fill="#FFFD00" d="M551.3,107.1v-7.6c0-2.1-0.8-3.9-2.3-5.4s-3.3-2.3-5.4-2.3h-7.7c-4.5,0-7.1,2.6-7.6,7.7h-7.7
		c1.2-10.3,6.3-15.4,15.3-15.4h15.4c4.2,0,7.8,1.5,10.8,4.5c3,3,4.5,6.6,4.5,10.8v38.3h-15.3v-7.7c-0.6,5.1-3.2,7.7-7.7,7.7h-7.7
		c-4.2,0-7.8-1.5-10.8-4.5c-3-3-4.5-6.6-4.5-10.8v-0.1c0-4.2,1.5-7.8,4.5-10.8s6.6-4.5,10.8-4.5H551.3z M551.3,114.8h-7.7
		c-2.1,0-3.9,0.7-5.4,2.2s-2.3,3.3-2.3,5.4v0.1c0,2.1,0.7,3.8,2.2,5.4c1.5,1.5,3.3,2.3,5.4,2.3s3.9-0.8,5.4-2.3
		c1.5-1.5,2.2-3.3,2.2-5.4V114.8z"/>
	<path fill="#FFFD00" d="M627.9,137.8h-15.3v-7.7c-0.6,5.1-3.2,7.7-7.7,7.7h-7.7c-4.2,0-7.8-1.5-10.8-4.5s-4.5-6.6-4.5-10.8v-23
		c0-4.2,1.5-7.9,4.5-10.9s6.6-4.5,10.8-4.5h15.4V68.8h15.3V137.8z M612.6,91.8h-7.7c-2.1,0-3.9,0.8-5.4,2.3s-2.3,3.3-2.3,5.4v23
		c0,2.1,0.7,3.8,2.2,5.4c1.5,1.5,3.3,2.3,5.4,2.3s3.9-0.8,5.4-2.3c1.5-1.5,2.2-3.3,2.2-5.4V91.8z"/>
	<path fill="#FFFD00" d="M643.2,76.5v-7.7h15.3v7.7H643.2z M643.2,137.8V84.1h15.3v53.7H643.2z"/>
	<path fill="#FFFD00" d="M712.2,99.5h-7.6c-0.7-5.1-3.1-7.7-7.3-7.7c-2.7,0-4.7,0.5-6.1,1.6c-1.4,1.1-2,2.7-2,4.8
		c0,2.2,3.7,5.3,11.2,9.3c6.1,3.3,9.6,6,10.5,8.1c0.9,2.1,1.4,4.4,1.4,6.8c0,4.3-1.5,7.9-4.5,10.9s-6.6,4.5-10.8,4.5h-7.7
		c-10.2,0-15.3-5.1-15.3-15.3h7.7c0.6,5.1,3,7.7,7.2,7.7c2.7,0,4.7-0.5,6.1-1.6c1.4-1.1,2-2.7,2-4.8c0-2.2-3.7-5.2-11.1-9.3
		c-6.1-3.2-9.6-5.9-10.5-8.1s-1.4-4.4-1.4-6.8c0-4.3,1.5-7.9,4.5-10.9s6.6-4.5,10.8-4.5h7.7C706.5,84.1,711.6,89.2,712.2,99.5z"/>
	<path fill="#FFFD00" d="M773.6,114.8h-30.7v7.7c0,2.1,0.7,3.8,2.2,5.4c1.5,1.5,3.3,2.3,5.4,2.3h7.7c5.1,0,7.6-2.5,7.6-7.6h7.7
		c-1.2,10.2-6.3,15.3-15.3,15.3h-15.4c-4.2,0-7.8-1.5-10.8-4.5c-3-3-4.5-6.6-4.5-10.8v-23c0-4.2,1.5-7.9,4.5-10.9s6.6-4.5,10.8-4.5
		h15.4c4.2,0,7.8,1.5,10.8,4.5c3,3,4.5,6.6,4.5,10.8V114.8z M742.9,107.1h15.4v-7.6c0-2.1-0.8-3.9-2.3-5.4s-3.3-2.3-5.4-2.3
		c-2.1,0-3.9,0.8-5.4,2.3s-2.3,3.3-2.3,5.4V107.1z"/>
</g>
</svg>
